<?xml version="1.0" encoding="UTF-8"?><svg id="Layer_1" xmlns="http://www.w3.org/2000/svg" viewBox="0 0 708 560"><defs><style>.cls-1{fill:#fff;}.cls-1,.cls-2{stroke-width:0px;}.cls-2{fill:#231f20;}</style></defs><path class="cls-1" d="m47.2,334c-22.72,0-41.2-24.22-41.2-54s18.48-54,41.2-54h613.6c22.72,0,41.2,24.22,41.2,54s-18.48,54-41.2,54H47.2Z"/><path class="cls-2" d="m660.8,232c8.85,0,17.35,4.61,23.94,12.99,7.26,9.23,11.26,21.66,11.26,35.01s-4,25.78-11.26,35.01c-6.59,8.38-15.09,12.99-23.94,12.99H47.2c-8.85,0-17.35-4.61-23.94-12.99-7.26-9.23-11.26-21.66-11.26-35.01s4-25.78,11.26-35.01c6.59-8.38,15.09-12.99,23.94-12.99h613.6m0-12H47.2c-26.07,0-47.2,26.86-47.2,60s21.13,60,47.2,60h613.6c26.07,0,47.2-26.86,47.2-60s-21.13-60-47.2-60h0Z"/><path class="cls-1" d="m47.2,554c-22.72,0-41.2-24.22-41.2-54s18.48-54,41.2-54h613.6c22.72,0,41.2,24.22,41.2,54s-18.48,54-41.2,54H47.2Z"/><path class="cls-2" d="m660.8,452c8.85,0,17.35,4.61,23.94,12.99,7.26,9.23,11.26,21.66,11.26,35.01s-4,25.78-11.26,35.01c-6.59,8.38-15.09,12.99-23.94,12.99H47.2c-8.85,0-17.35-4.61-23.94-12.99-7.26-9.23-11.26-21.66-11.26-35.01s4-25.78,11.26-35.01c6.59-8.38,15.09-12.99,23.94-12.99h613.6m0-12H47.2c-26.07,0-47.2,26.86-47.2,60s21.13,60,47.2,60h613.6c26.07,0,47.2-26.86,47.2-60s-21.13-60-47.2-60h0Z"/><path class="cls-1" d="m47.2,114c-22.72,0-41.2-24.22-41.2-54S24.48,6,47.2,6h613.6c22.72,0,41.2,24.22,41.2,54s-18.48,54-41.2,54H47.2Z"/><path class="cls-2" d="m660.8,12c8.85,0,17.35,4.61,23.94,12.99,7.26,9.23,11.26,21.66,11.26,35.01s-4,25.78-11.26,35.01c-6.59,8.38-15.09,12.99-23.94,12.99H47.2c-8.85,0-17.35-4.61-23.94-12.99-7.26-9.23-11.26-21.66-11.26-35.01s4-25.78,11.26-35.01c6.59-8.38,15.09-12.99,23.94-12.99h613.6m0-12H47.2C21.13,0,0,26.86,0,60s21.13,60,47.2,60h613.6c26.07,0,47.2-26.86,47.2-60S686.87,0,660.8,0h0Z"/></svg>