<?xml version="1.0" encoding="utf-8"?>
<!-- Generator: Adobe Illustrator 27.9.0, SVG Export Plug-In . SVG Version: 6.00 Build 0)  -->
<svg version="1.1" id="Layer_1" xmlns="http://www.w3.org/2000/svg" xmlns:xlink="http://www.w3.org/1999/xlink" x="0px" y="0px"
	 viewBox="0 0 708 560" style="enable-background:new 0 0 708 560;" xml:space="preserve">
<style type="text/css">
	.st0{fill:#FFFFFF;}
	.st1{fill:#231F20;}
</style>
<g>
	<path class="st0" d="M47.2,335C24.5,335,6,310.8,6,281c0-29.8,18.5-54,41.2-54h613.6c22.7,0,41.2,24.2,41.2,54
		c0,29.8-18.5,54-41.2,54H47.2z"/>
	<path class="st1" d="M660.8,233c8.9,0,17.4,4.6,23.9,13c7.3,9.2,11.3,21.7,11.3,35s-4,25.8-11.3,35c-6.6,8.4-15.1,13-23.9,13H47.2
		c-8.9,0-17.4-4.6-23.9-13C16,306.8,12,294.4,12,281s4-25.8,11.3-35c6.6-8.4,15.1-13,23.9-13H660.8 M660.8,221H47.2
		C21.1,221,0,247.9,0,281s21.1,60,47.2,60h613.6c26.1,0,47.2-26.9,47.2-60S686.9,221,660.8,221L660.8,221z"/>
</g>
<g>
	<path class="st0" d="M47.2,555C24.5,555,6,530.8,6,501s18.5-54,41.2-54h613.6c22.7,0,41.2,24.2,41.2,54s-18.5,54-41.2,54H47.2z"/>
	<path class="st1" d="M660.8,453c8.9,0,17.4,4.6,23.9,13c7.3,9.2,11.3,21.7,11.3,35c0,13.3-4,25.8-11.3,35c-6.6,8.4-15.1,13-23.9,13
		H47.2c-8.9,0-17.4-4.6-23.9-13C16,526.8,12,514.4,12,501c0-13.3,4-25.8,11.3-35c6.6-8.4,15.1-13,23.9-13H660.8 M660.8,441H47.2
		C21.1,441,0,467.9,0,501s21.1,60,47.2,60h613.6c26.1,0,47.2-26.9,47.2-60S686.9,441,660.8,441L660.8,441z"/>
</g>
<g>
	<path class="st0" d="M47.2,115C24.5,115,6,90.8,6,61S24.5,7,47.2,7h613.6C683.5,7,702,31.2,702,61s-18.5,54-41.2,54H47.2z"/>
	<path class="st1" d="M660.8,13c8.9,0,17.4,4.6,23.9,13C692,35.2,696,47.7,696,61s-4,25.8-11.3,35c-6.6,8.4-15.1,13-23.9,13H47.2
		c-8.9,0-17.4-4.6-23.9-13C16,86.8,12,74.4,12,61s4-25.8,11.3-35c6.6-8.4,15.1-13,23.9-13H660.8 M660.8,1H47.2C21.1,1,0,27.9,0,61
		s21.1,60,47.2,60h613.6c26.1,0,47.2-26.9,47.2-60S686.9,1,660.8,1L660.8,1z"/>
</g>
</svg>
