<?xml version="1.0" encoding="UTF-8"?><svg id="Layer_1" xmlns="http://www.w3.org/2000/svg" viewBox="0 0 708 560"><defs><style>.cls-1{fill:#231f20;stroke-width:0px;}</style></defs><path class="cls-1" d="m47.2,220h613.6c26.07,0,47.2,26.86,47.2,60h0c0,33.14-21.13,60-47.2,60H47.2c-26.07,0-47.2-26.86-47.2-60h0c0-33.14,21.13-60,47.2-60Z"/><path class="cls-1" d="m47.2,440h613.6c26.07,0,47.2,26.86,47.2,60h0c0,33.14-21.13,60-47.2,60H47.2c-26.07,0-47.2-26.86-47.2-60h0c0-33.14,21.13-60,47.2-60Z"/><path class="cls-1" d="m47.2,0h613.6c26.07,0,47.2,26.86,47.2,60h0c0,33.14-21.13,60-47.2,60H47.2C21.13,120,0,93.14,0,60h0C0,26.86,21.13,0,47.2,0Z"/></svg>